<svg xmlns="http://www.w3.org/2000/svg" width="103" height="168" viewBox="0 0 103 168" fill="none"><rect x="6" y="145" width="88" height="23" rx="11.5" fill="#D9ED92"></rect><path d="M29.4339 57.6747L31.5296 62.5757C31.6082 62.7546 31.7485 62.8936 31.9302 62.9661C32.1118 63.0379 32.3111 63.0366 32.4894 62.9593L34.9341 61.9135L34.9375 61.9128L34.9754 61.8965V61.8952L35.1422 61.8294C35.2933 61.7691 35.5394 61.6749 35.8633 61.561C36.512 61.332 37.4683 61.0168 38.649 60.7009C41.0144 60.0699 44.2854 59.4464 47.7644 59.4471C51.1432 59.4464 54.5869 60.0374 57.1971 60.661C59.8106 61.2798 61.6128 61.9277 61.7246 61.9704L61.7416 61.9752L64.2344 62.8997C64.614 63.0386 65.0349 62.8461 65.1732 62.4686L67.0242 57.47C67.1624 57.0925 66.9727 56.6716 66.5938 56.5319L64.0921 55.6068L64.0996 55.6088C63.9959 55.5702 62.0425 54.8504 59.0501 54.1224C56.0584 53.3979 52.0378 52.6611 47.7604 52.6578C43.5581 52.6659 39.7965 53.3769 37.0311 54.1048C34.2733 54.8294 32.4846 55.5844 32.2989 55.6583L32.2725 55.6698L29.8196 56.717C29.64 56.7942 29.5004 56.9352 29.4278 57.1162C29.356 57.2971 29.358 57.4957 29.4339 57.6747ZM93.8147 85.0223C94.1909 85.3565 94.7243 85.5734 95.32 85.5734C95.9192 85.5734 96.4492 85.3565 96.8254 85.0223C97.2002 84.6855 97.4144 84.249 97.4144 83.7691C97.4144 83.2913 97.2002 82.8534 96.8254 82.5173C96.4492 82.1838 95.9192 81.9662 95.32 81.9669C94.7243 81.9662 94.1909 82.1838 93.8147 82.5173C93.4392 82.8534 93.2277 83.2913 93.2277 83.7691C93.2277 84.249 93.4392 84.6855 93.8147 85.0223ZM10.1966 93.9683H1.71349C1.28989 93.9683 0.890671 93.8029 0.593132 93.504C0.294228 93.2045 0.126144 92.8066 0.126144 92.3837V70.7124C0.126144 70.2888 0.294228 69.8909 0.593132 69.592C0.890671 69.2918 1.28989 69.1271 1.71349 69.1271H9.3568C10.3687 67.0104 11.6524 65.0008 13.1686 63.1179C12.8846 62.4469 9.35341 54.1719 6.73719 49.0113C5.66833 48.383 18.5149 41.814 29.0645 51.6031C34.7972 49.2424 41.3106 47.9011 48.224 47.9011C71.1688 47.9011 89.7717 62.6028 89.7717 80.7381C89.7717 81.2322 89.7507 81.7209 89.7229 82.2082C89.9385 82.9937 90.4563 83.7135 91.2256 84.2978C91.5523 84.5452 91.9372 84.7526 92.3459 84.9376C92.1758 84.5811 92.0803 84.1853 92.0803 83.7691C92.0803 82.9361 92.4646 82.1858 93.0542 81.6619C93.6452 81.1366 94.4443 80.8215 95.32 80.8215C96.1964 80.8215 96.9975 81.1366 97.5892 81.6619C98.1789 82.1858 98.5605 82.9361 98.5605 83.7691C98.5605 84.1853 98.4629 84.5811 98.2962 84.9376C98.7028 84.7526 99.0871 84.5452 99.4131 84.2978C100.441 83.5163 101.026 82.4929 101.026 81.3935H102.172C102.172 82.9185 101.352 84.272 100.105 85.2107C98.8567 86.1542 97.1704 86.7181 95.32 86.7188C93.4697 86.7181 91.782 86.1542 90.5356 85.2107C90.1513 84.922 89.8266 84.5831 89.5366 84.2225C88.6453 90.8932 85.2272 96.9648 80.0511 101.835L81.6445 117.94C81.7286 118.78 81.2019 119.557 80.3913 119.792L74.6722 121.443C73.8731 121.675 73.0198 121.306 72.6355 120.566L67.1577 109.964C61.4766 112.267 55.0444 113.574 48.224 113.574C41.823 113.574 35.7596 112.428 30.3462 110.385L25.086 120.566C24.7017 121.306 23.847 121.674 23.0479 121.443L17.3302 119.792C16.5189 119.558 15.9922 118.78 16.0763 117.94L17.5633 102.895C14.5289 100.276 12.0347 97.2623 10.1966 93.9683Z" fill="white"></path><path d="M63.6201 28.4769C63.6201 32.8235 60.0977 36.3452 55.7525 36.3452C51.4072 36.3452 47.8828 32.8235 47.8828 28.4769C47.8828 24.1303 51.4072 20.6079 55.7525 20.6079C60.0977 20.6079 63.6201 24.1303 63.6201 28.4769Z" fill="white"></path><path d="M41.1392 16.0978C41.1392 20.4444 37.6168 23.9668 33.2702 23.9668C28.9263 23.9668 25.4005 20.4444 25.4005 16.0978C25.4005 11.7519 28.9263 8.22949 33.2702 8.22949C37.6168 8.22949 41.1392 11.7519 41.1392 16.0978Z" fill="white"></path><path d="M60.6226 4.87051C60.6226 7.55993 58.4421 9.73967 55.7527 9.73967C53.0613 9.73967 50.8809 7.55993 50.8809 4.87051C50.8809 2.18041 53.0613 0 55.7527 0C58.4421 0 60.6226 2.18041 60.6226 4.87051Z" fill="white"></path></svg>