<svg xmlns="http://www.w3.org/2000/svg" width="118" height="78" viewBox="0 0 118 78" fill="none"><path d="M97.6672 44.0929L97.6594 44.1007L88.729 35.9112C86.5003 33.8687 82.6597 30.7629 80.1913 29.0085L70.3561 20.12C67.8865 18.3669 63.7381 18.1989 61.135 19.7505L57.3035 22.0334C54.7003 23.5837 51.0863 22.8809 49.2727 20.4714L48.4268 19.3436C46.6132 16.9329 47.1631 13.5467 49.6472 11.8156L57.2158 6.54194C56.3843 6.1324 55.304 5.59884 54.1137 5.00972C51.5289 3.7333 47.1252 3.65708 44.3295 4.8379L38.0402 7.49667C35.2472 8.68007 30.672 8.68007 27.8776 7.49667L21.5857 4.83661C18.7887 3.65579 14.8473 4.52396 12.8281 6.76674L1.37308 19.4844C-0.647392 21.7272 -0.409073 25.1598 1.89686 27.1119L14.1546 37.4744L14.2463 37.5519L18.0515 33.6154C20.1506 31.445 23.6677 31.3623 25.8702 33.4333L26.8981 34.4022C28.9671 36.3479 29.1386 39.5182 27.4128 41.6964C29.521 39.6242 32.957 39.566 35.1228 41.6034L36.1546 42.5749C38.3597 44.6459 38.4409 48.1173 36.3419 50.2877L34.2703 52.4297C36.3877 50.4492 39.7491 50.4143 41.8822 52.422L42.9153 53.3922C45.1152 55.4631 45.199 58.9332 43.1026 61.105L43.1196 61.1347C45.2186 58.9629 48.7345 58.8803 50.9344 60.9512L51.9701 61.9214C54.1582 63.9808 54.2486 67.4225 52.1849 69.5968L52.6222 69.9662L59.7888 76.546C62.0136 78.5898 65.5308 78.4632 67.6023 76.2657L68.57 75.2347C69.226 74.5384 69.6346 73.7115 69.8493 72.8485L58.9141 62.9304C58.1167 62.2057 58.0643 60.9796 58.7976 60.1916C59.5309 59.4035 60.7749 59.3518 61.5736 60.0766L78.7221 75.6313C80.4022 75.8096 82.1463 75.2528 83.3799 73.9441L84.3475 72.917C85.272 71.9351 85.7342 70.6975 85.7879 69.4482L68.6839 53.9451C67.8865 53.2204 67.8328 51.9943 68.5674 51.2062C69.302 50.4182 70.5433 50.3665 71.3421 51.0913L90.354 68.3268C91.6097 68.1795 92.8249 67.6343 93.7467 66.6538L94.7157 65.6267C95.9427 64.3244 96.3774 62.579 96.0802 60.9448L76.8981 43.5529C76.1006 42.8281 76.0482 41.6034 76.7802 40.814C77.5161 40.026 78.7575 39.9743 79.5563 40.6991L98.1661 57.5715C99.0513 57.3002 99.8854 56.8261 100.558 56.1091L101.529 55.0794C103.598 52.8806 103.469 49.4105 101.239 47.3692L97.6672 44.0929Z" fill="#D9ED92"></path><path d="M51.9447 62.3485L50.9062 61.3653C48.7006 59.2668 45.1755 59.3506 43.0709 61.5512L43.0538 61.5211C45.1571 59.3205 45.0717 55.8041 42.8661 53.7056L41.8302 52.7224C39.6915 50.688 36.3227 50.7247 34.1984 52.7303L36.2754 50.5597C38.3813 48.359 38.2986 44.8427 36.0876 42.7441L35.0531 41.7597C32.8829 39.6952 29.4379 39.7541 27.3228 41.8539C29.0532 39.6467 28.8825 36.4341 26.8068 34.4625L25.7762 33.4807C23.5679 31.3808 20.0415 31.4646 17.9369 33.6653L7.52574 44.5494C5.41986 46.7501 5.50388 50.2665 7.7161 52.3637L8.74803 53.3455C10.7883 55.2844 13.9445 55.3341 16.0726 53.5982L13.3313 56.4639C11.2281 58.6659 11.3121 62.1822 13.5164 64.2795L14.5549 65.2626C16.7619 67.3612 20.2883 67.2774 22.3916 65.0767L24.5329 62.8368C22.6279 65.0453 22.7539 68.4006 24.8913 70.4311L25.9298 71.4169C28.1355 73.5154 31.6632 73.4304 33.7665 71.2297L37.2075 67.6793C35.1017 69.88 35.1844 73.3963 37.3927 75.4949L38.4285 76.478C40.6342 78.5779 44.1593 78.4941 46.2652 76.2934L52.1285 70.1627C54.2344 67.9634 54.1504 64.447 51.9447 62.3485ZM116.376 23.217C118.416 20.9561 118.553 17.1439 116.679 14.7443L106.988 2.32055C105.115 -0.0777874 101.47 -0.724501 98.8818 0.887049L89.4343 6.77817C86.8479 8.38972 82.4891 8.62013 79.7478 7.29004L70.4932 2.7997C67.7493 1.46961 63.4693 1.81523 60.98 3.56947L49.6157 11.5722C47.1264 13.3265 46.575 16.7577 48.392 19.2006L49.2402 20.3435C51.0585 22.785 54.6821 23.4972 57.2921 21.9262L61.1336 19.613C63.7437 18.0407 67.9029 18.2109 70.379 19.9874L80.2401 28.9943C82.7149 30.7708 86.5643 33.9192 88.8002 35.989L97.7541 44.2876L116.376 23.217Z" fill="white"></path></svg>