<svg width="286" height="291" viewBox="0 0 286 291" fill="none" xmlns="http://www.w3.org/2000/svg">
<path d="M283.391 289H2.60427C1.86423 289 1.38057 288.224 1.70645 287.56L141.605 2.32411C141.971 1.57907 143.032 1.5776 143.4 2.32162L284.287 287.557C284.616 288.222 284.132 289 283.391 289Z" stroke="#F2D954" stroke-width="3"/>
<path d="M72.6155 145L211.4 145C212.139 145 212.622 145.774 212.298 146.438L143.639 287.177C143.276 287.922 142.215 287.927 141.845 287.185L71.7205 146.446C71.3892 145.781 71.8727 145 72.6155 145Z" stroke="#F2D954" stroke-width="3"/>
<circle cx="142" cy="189" r="42.5" stroke="#F2D954" stroke-width="3"/>
<line x1="1.13225" y1="287.776" x2="142.132" y2="187.776" stroke="#F2D954" stroke-width="3"/>
<line x1="142.5" y1="1" x2="142.5" y2="189" stroke="#F2D954" stroke-width="3"/>
<line y1="-1.5" x2="172.861" y2="-1.5" transform="matrix(-0.815683 -0.578499 -0.578499 0.815683 283 289)" stroke="#F2D954" stroke-width="3"/>
</svg>
