<svg width="284" height="289" viewBox="0 0 284 289" fill="none" xmlns="http://www.w3.org/2000/svg">
<circle cx="142" cy="145" r="140.5" stroke="#F2D954" stroke-width="3"/>
<rect x="44.5" y="46.5" width="197" height="197" stroke="#F2D954" stroke-width="3"/>
<path d="M143.5 50.7539L163.045 95.5932L163.623 96.9186L164.969 96.3899L210.496 78.5044L192.61 124.031L192.081 125.377L193.407 125.955L238.246 145.5L193.407 165.045L192.081 165.623L192.61 166.969L210.496 212.496L164.969 194.61L163.623 194.081L163.045 195.407L143.5 240.246L123.955 195.407L123.377 194.081L122.031 194.61L76.5044 212.496L94.3899 166.969L94.9186 165.623L93.5932 165.045L48.7539 145.5L93.5932 125.955L94.9186 125.377L94.3899 124.031L76.5044 78.5044L122.031 96.3899L123.377 96.9186L123.955 95.5932L143.5 50.7539Z" stroke="#F2D954" stroke-width="3"/>
<rect x="141" y="3" width="3" height="238" fill="#F2D954"/>
<rect y="147" width="3" height="238" transform="rotate(-90 0 147)" fill="#F2D954"/>
<path d="M105.767 243.5L143.5 284.777L181.233 243.5H105.767Z" stroke="#F2D954" stroke-width="3"/>
<path d="M241.25 184.194L281.797 146.5L241.25 108.806V184.194Z" stroke="#F2D954" stroke-width="3"/>
</svg>
