<svg width="284" height="289" viewBox="0 0 284 289" fill="none" xmlns="http://www.w3.org/2000/svg">
<rect x="77.5" y="81.5" width="130" height="127" stroke="#F2D954" stroke-width="3"/>
<circle cx="142.5" cy="144.5" r="92" stroke="#F2D954" stroke-width="3"/>
<path d="M142 5.31145L173.294 111.614L173.523 112.389L174.296 112.625L278.856 144.5L174.296 176.375L173.523 176.611L173.294 177.386L142 283.689L110.706 177.386L110.477 176.611L109.704 176.375L5.14406 144.5L109.704 112.625L110.477 112.389L110.706 111.614L142 5.31145Z" stroke="#F2D954" stroke-width="3"/>
<path d="M164.163 143.379L163.457 144.292L164.159 145.208L234.338 236.838L142.708 166.659L141.792 165.957L140.879 166.663L48.1756 238.324L119.837 145.621L120.543 144.708L119.841 143.792L49.6615 52.1617L141.291 122.341L142.208 123.043L143.121 122.337L235.824 50.6758L164.163 143.379Z" stroke="#F2D954" stroke-width="3"/>
</svg>
