<svg xmlns="http://www.w3.org/2000/svg" width="600" height="365" viewBox="0 0 450 365" fill="none">
    <path d="M311.267 175.655C311.267 175.655 265.226 263.925 256.617 280.131C249.094 294.29 237.316 299.408 221.566 299.088C206.864 298.779 196.837 292.193 190.276 279.848C177.079 255.045 153.893 210.706 142.435 188.778C141.251 186.496 138.846 185.127 136.28 185.275C133.715 185.423 131.483 187.063 130.57 189.468C118.039 223.336 85.6148 311.224 68.644 357.56C67.3614 361.063 65.7827 362.506 61.8483 362.457C42.8919 362.235 23.9231 362.284 4.95433 362.432C1.09398 362.457 -0.386029 362.198 1.43931 357.671C32.2605 281.352 62.9213 204.959 93.6068 128.578C94.3468 126.728 95.0005 124.841 95.6295 122.954C100.464 108.549 110.195 99.6319 125.402 97.9545C140.992 96.2279 153.239 102.493 160.96 116.146C181.47 152.444 202.868 188.235 221.751 225.433C222.528 226.974 223.404 228.467 224.551 230.563C229.669 220.906 234.306 211.706 239.338 202.727C255.199 174.348 271.097 145.993 287.192 117.75C298.514 97.8805 320.159 91.9112 338.881 103.147C345.332 107.02 349.476 112.742 352.164 119.587C378.792 187.507 405.395 255.427 432.011 323.347C436.451 334.67 440.78 346.016 445.38 357.277C446.848 360.878 447.07 362.531 442.198 362.457C424.228 362.235 406.259 362.198 388.301 362.494C383.972 362.568 382.961 360.212 381.777 357.153" fill="#F2D954">
    </path>
    <path d="M101.267 36.6448C101.439 15.9617 117.645 0.322952 138.649 0.557286C158.395 0.779288 174.453 17.306 174.367 37.3108C174.268 57.5499 157.532 73.645 136.775 73.46C117.004 73.2997 101.094 56.7976 101.267 36.6448Z" fill="#F2D954">
    </path>
    <path d="M361.486 37.0246C361.462 57.387 345.354 73.4944 324.992 73.5191C305.172 73.5314 288.571 57.1897 288.423 37.5056C288.275 16.9951 304.58 0.579361 325.115 0.554695C345.527 0.542361 361.499 16.5511 361.486 37.0246Z" fill="#F2D954">
    </path>
</svg>